<svg width="19" height="14" viewBox="0 0 19 14" fill="none" xmlns="http://www.w3.org/2000/svg">
<path d="M16.8547 3.27943L16.8984 3.36934L16.8547 3.27943L13.3231 4.99871L9.99486 1.16136C9.85091 0.995352 9.64196 0.9 9.42223 0.9C9.20249 0.9 8.99359 0.995357 8.84961 1.16135L8.92516 1.22687L8.84961 1.16135L5.52141 4.99867L1.9898 3.2794L1.98979 3.27939C1.71871 3.14747 1.39528 3.18866 1.16598 3.38434C0.936689 3.58002 0.845127 3.89298 0.932787 4.18139L0.932788 4.1814L3.43314 12.4062C3.5302 12.7255 3.82464 12.9438 4.15834 12.9438H14.6861C15.0198 12.9438 15.3143 12.7255 15.4113 12.4063C15.4113 12.4063 15.4113 12.4063 15.4113 12.4063L17.9116 4.18143C17.9993 3.89302 17.9078 3.58004 17.6784 3.38437C17.4492 3.18869 17.1257 3.14747 16.8547 3.27943ZM2.88866 5.40309L5.381 6.61644L5.381 6.61644C5.68964 6.76667 6.06053 6.69079 6.28538 6.43157L6.28539 6.43156L9.42223 2.81486L12.5591 6.43156C12.7839 6.69084 13.1549 6.76663 13.4635 6.61644L13.4197 6.52653L13.4635 6.61644L15.9558 5.40309L14.1243 11.4278H4.72013L2.88866 5.40309Z" fill="#FFE600" stroke="#FFE600" stroke-width="0.2"/>
</svg>
