<svg width="17" height="12" viewBox="0 0 17 12" fill="none" xmlns="http://www.w3.org/2000/svg">
<path fill-rule="evenodd" clip-rule="evenodd" d="M15.8984 2.36934C16.1338 2.25479 16.4146 2.29058 16.6135 2.46044C16.8126 2.6303 16.8921 2.90198 16.816 3.15235L14.3156 11.3772C14.2314 11.6543 13.9758 11.8438 13.6861 11.8438H3.15834C2.86866 11.8438 2.61307 11.6543 2.52881 11.3771L0.0284651 3.15231C-0.047631 2.90195 0.0318538 2.63027 0.230895 2.46041C0.429935 2.29055 0.710698 2.25479 0.946027 2.36931L4.29567 4H4.65263L7.92516 0.226874C8.05014 0.0827748 8.23148 0 8.42223 0C8.61298 0 8.79436 0.0827748 8.91931 0.226874L12.2978 4.12222L15.8984 2.36934ZM12.9167 10.5278H13.1984L13.2302 10.4233L12.9167 10.5278ZM8.53408 1.7912L8.04557 2.09652L8.42223 1.66224L8.53408 1.7912Z" fill="#27A4FF"/>
</svg>
