<svg width="101" height="101" viewBox="0 0 101 101" fill="none" xmlns="http://www.w3.org/2000/svg">
<g clip-path="url(#clip0)">
<g filter="url(#filter0_d)">
<path d="M50.5 8.41699C31.9371 8.41699 16.8334 23.5207 16.8334 42.0626C16.7113 69.1853 49.2207 91.6747 50.5 92.5837C50.5 92.5837 84.2887 69.1853 84.1667 42.0837C84.1667 23.5207 69.063 8.41699 50.5 8.41699ZM50.5 58.917C41.1996 58.917 33.6667 51.3841 33.6667 42.0837C33.6667 32.7832 41.1996 25.2503 50.5 25.2503C59.8004 25.2503 67.3334 32.7832 67.3334 42.0837C67.3334 51.3841 59.8004 58.917 50.5 58.917Z" fill="#FFE600"/>
</g>
<ellipse cx="50.5" cy="40.1941" rx="21.6429" ry="21.6429" fill="#FFE600"/>
<g clip-path="url(#clip1)">
<path d="M65.5974 35.0601C62.4315 32.5735 59.3132 30.0892 56.1591 27.6026C54.7911 26.5504 54.1261 25.2133 54.404 23.4843C54.4515 23.0544 54.2116 22.9095 53.739 23.0544C52.6512 23.3869 51.7535 24.0115 51.2334 25.0162C50.5209 26.4507 49.3927 26.9779 47.9677 26.9304C45.8373 26.8331 44.5168 27.9849 43.3816 29.6142C42.1466 31.3432 41.5409 33.3525 41.0683 35.3641C40.5482 37.5206 40.3059 39.6795 40.2204 41.874C40.123 43.5531 40.1729 45.1824 40.123 46.852C40.123 46.9494 40.123 46.9993 40.123 47.0468V51.4999H61.0255V48.1417C61.0255 48.1417 61.1942 46.7285 60.1492 45.693C59.1042 44.6575 57.995 43.6885 57.995 43.6885C57.4606 43.2515 56.9738 42.7528 56.5534 42.2089L52.6987 37.2214C52.9386 37.4161 53.1714 37.6014 53.4112 37.7961C54.5964 38.7034 55.8694 39.0857 57.3324 38.7034C58.1803 38.5086 59.0377 38.606 59.7905 39.0834C60.2109 39.3636 60.6764 39.6059 61.1443 39.8481C62.2439 40.4181 63.5977 40.1569 64.3886 39.2069C64.8754 38.6226 65.3623 38.0384 65.8492 37.4636C66.4691 36.7297 66.3551 35.6539 65.5974 35.0601Z" fill="#27A4FF"/>
<path d="M63.7498 59.2829L61.3748 54.5305C61.1729 54.1291 60.762 53.875 60.3131 53.875H41.313C40.8642 53.875 40.4533 54.1291 40.2514 54.5305L37.8764 59.2805C37.6911 59.6487 37.7125 60.0857 37.9286 60.4348C38.1448 60.7839 38.5271 61 38.938 61H62.6882C63.099 61 63.4814 60.7863 63.6999 60.4372C63.916 60.088 63.935 59.651 63.7498 59.2829Z" fill="#27A4FF"/>
</g>
</g>
<defs>
<filter id="filter0_d" x="1.83301" y="-6.58301" width="97.334" height="114.167" filterUnits="userSpaceOnUse" color-interpolation-filters="sRGB">
<feFlood flood-opacity="0" result="BackgroundImageFix"/>
<feColorMatrix in="SourceAlpha" type="matrix" values="0 0 0 0 0 0 0 0 0 0 0 0 0 0 0 0 0 0 127 0"/>
<feOffset/>
<feGaussianBlur stdDeviation="7.5"/>
<feColorMatrix type="matrix" values="0 0 0 0 1 0 0 0 0 0.9 0 0 0 0 0 0 0 0 0.35 0"/>
<feBlend mode="normal" in2="BackgroundImageFix" result="effect1_dropShadow"/>
<feBlend mode="normal" in="SourceGraphic" in2="effect1_dropShadow" result="shape"/>
</filter>
<clipPath id="clip0">
<rect width="101" height="101" fill="white"/>
</clipPath>
<clipPath id="clip1">
<rect x="33" y="23" width="38" height="38" fill="white"/>
</clipPath>
</defs>
</svg>
