<svg width="31" height="25" viewBox="0 0 31 25" fill="none" xmlns="http://www.w3.org/2000/svg">
<path d="M29.3595 3.60558H20.3592V0.861514C20.3592 0.474154 20.0451 0.160156 19.6579 0.160156H11.3421C10.9548 0.160156 10.6408 0.474154 10.6408 0.861514V3.60565H1.64055C0.735934 3.60558 0 4.34151 0 5.24612V10.4636V23.1995C0 24.104 0.735934 24.8399 1.64055 24.8399H29.3595C30.2641 24.8399 31.0001 24.104 31.0001 23.1995V10.4636V5.24612C31 4.34151 30.2641 3.60558 29.3595 3.60558ZM12.0435 1.56287H18.9565V3.60565H12.0435V1.56287ZM1.40271 5.24612C1.40271 5.11497 1.50939 5.00829 1.64055 5.00829H29.3595C29.4906 5.00829 29.5974 5.11497 29.5974 5.24612V10.4636C29.5974 11.7108 28.5826 12.7255 27.3354 12.7255H17.7293V10.3946C17.7293 10.0073 17.4152 9.69329 17.0279 9.69329H13.9721C13.5847 9.69329 13.2707 10.0073 13.2707 10.3946V12.7255H3.66466C2.41744 12.7255 1.40271 11.7108 1.40271 10.4636V5.24612ZM14.6735 14.1283H16.3266V14.9312C16.3266 15.387 15.9557 15.7578 15.5 15.7578C15.0442 15.7578 14.6735 15.387 14.6735 14.9312V14.1283ZM14.6735 12.7255V11.096H16.3266V12.7255H14.6735ZM29.3595 23.4372H1.64055C1.50939 23.4372 1.40271 23.3306 1.40271 23.1995V13.3436C2.02622 13.8344 2.81153 14.1283 3.66466 14.1283H13.2707V14.9312C13.2707 16.1604 14.2707 17.1605 15.4999 17.1605C16.7291 17.1605 17.7292 16.1604 17.7292 14.9312V14.1283H27.3353C28.1884 14.1283 28.9738 13.8344 29.5972 13.3436V23.1995C29.5973 23.3306 29.4906 23.4372 29.3595 23.4372Z" fill="#27A4FF"/>
</svg>
