<svg width="31" height="31" viewBox="0 0 31 31" fill="none" xmlns="http://www.w3.org/2000/svg">
<g clip-path="url(#clip0)">
<path d="M17.6225 14.7012C17.714 14.88 17.8958 14.9832 18.0839 14.9832C18.1624 14.9832 18.243 14.9651 18.318 14.9269C18.3484 14.9114 21.3896 13.3666 22.8894 12.8928C23.1612 12.8066 23.312 12.5162 23.2257 12.2444C23.14 11.9726 22.8517 11.8213 22.5774 11.9071C20.9974 12.4067 17.977 13.9412 17.8489 14.0063C17.5946 14.1354 17.4934 14.4465 17.6225 14.7012Z" fill="#27A4FF"/>
<path d="M18.0839 8.78343C18.1624 8.78343 18.243 8.76532 18.318 8.72712C18.3484 8.71162 21.3895 7.16678 22.8894 6.693C23.1612 6.60672 23.312 6.31634 23.2257 6.04461C23.1399 5.77282 22.8517 5.62145 22.5773 5.70725C20.9974 6.20688 17.977 7.74136 17.8489 7.80645C17.5947 7.9356 17.4934 8.24662 17.6225 8.50134C17.714 8.68007 17.8958 8.78343 18.0839 8.78343Z" fill="#27A4FF"/>
<path d="M30.4841 7.75006C30.1984 7.75006 29.9674 7.98153 29.9674 8.26671V28.4165C29.9674 29.2711 29.272 29.9665 28.4175 29.9665H16.0176V28.7777C16.7709 28.5142 18.7331 27.8999 20.6675 27.8999C25.1682 27.8999 28.2243 28.8966 28.2547 28.9069C28.4102 28.9585 28.5838 28.9327 28.7197 28.8355C28.8545 28.7384 28.9341 28.5824 28.9341 28.4165V5.68343C28.9341 5.44113 28.7662 5.23133 28.5295 5.17914C28.5295 5.17914 28.1245 5.08875 27.4321 4.9616C27.1526 4.90995 26.8824 5.09595 26.8307 5.37598C26.7791 5.65703 26.9645 5.92622 27.2451 5.97787C27.5091 6.02643 27.7303 6.06929 27.9008 6.10344V27.7299C26.73 27.423 24.1302 26.8666 20.6675 26.8666C18.4163 26.8666 16.2051 27.6059 15.521 27.8565C14.9128 27.5878 13.0746 26.8666 10.8508 26.8666C7.29203 26.8666 4.3605 27.4535 3.10089 27.7516V6.08328C4.13266 5.82959 7.17996 5.16673 10.8508 5.16673C12.7346 5.16673 14.3502 5.75312 14.9842 6.01819V26.3499C14.9842 26.5359 15.0844 26.708 15.2461 26.7994C15.4078 26.8914 15.6072 26.8888 15.7669 26.7927C15.8181 26.7622 20.9371 23.7046 25.4807 22.1903C25.692 22.1195 25.8341 21.9226 25.8341 21.7V0.516766C25.8341 0.347297 25.7509 0.188665 25.6114 0.092094C25.4729 -0.00453808 25.2952 -0.0267586 25.1355 0.032698C21.0017 1.58317 16.8189 4.18612 16.777 4.21197C16.5352 4.36334 16.4613 4.68212 16.6127 4.92394C16.7635 5.16576 17.0823 5.23963 17.3246 5.08826C17.3628 5.06398 21.0017 2.79997 24.8007 1.2722V21.3301C21.274 22.5556 17.5917 24.5567 16.0174 25.4525V5.68343C16.0174 5.48763 15.9069 5.30883 15.7317 5.22104C15.6428 5.17714 13.5256 4.13344 10.8508 4.13344C6.18228 4.13344 2.59303 5.14354 2.44215 5.18689C2.22049 5.24992 2.06755 5.45299 2.06755 5.68343V28.4166C2.06755 28.5783 2.14402 28.7313 2.27268 28.8289C2.36362 28.8976 2.47315 28.9333 2.58425 28.9333C2.63178 28.9333 2.67931 28.9266 2.72581 28.9131C2.76147 28.9033 6.33419 27.9 10.8508 27.9C12.7398 27.9 14.3538 28.4879 14.9842 28.7519V29.9666H2.58425C1.7297 29.9666 1.03426 29.2712 1.03426 28.4166V8.26677C1.03426 7.98159 0.802792 7.75012 0.517619 7.75012C0.232445 7.75012 0.000976562 7.98159 0.000976562 8.26677V28.4166C0.000976562 29.841 1.15983 30.9999 2.58431 30.9999H28.4175C29.8419 30.9999 31.0008 29.8411 31.0008 28.4166V8.26677C31.0007 7.98153 30.7698 7.75006 30.4841 7.75006Z" fill="#27A4FF"/>
<path d="M17.6225 11.6012C17.714 11.78 17.8958 11.8833 18.0839 11.8833C18.1624 11.8833 18.243 11.8652 18.318 11.827C18.3484 11.8115 21.3896 10.2666 22.8894 9.79286C23.1612 9.70658 23.312 9.4162 23.2257 9.14447C23.14 8.87267 22.8517 8.72131 22.5774 8.8071C20.9974 9.30673 17.977 10.8412 17.8489 10.9063C17.5946 11.0355 17.4934 11.3465 17.6225 11.6012Z" fill="#27A4FF"/>
<path d="M17.6225 17.8013C17.714 17.9801 17.8958 18.0834 18.0839 18.0834C18.1624 18.0834 18.243 18.0653 18.318 18.027C18.3484 18.0115 21.3896 16.4667 22.8894 15.9929C23.1612 15.9067 23.312 15.6163 23.2257 15.3445C23.14 15.0727 22.8517 14.9214 22.5774 15.0072C20.9974 15.5068 17.977 17.0413 17.8489 17.1064C17.5946 17.2355 17.4934 17.5466 17.6225 17.8013Z" fill="#27A4FF"/>
<path d="M12.5177 9.58836C9.32736 8.8397 5.7019 9.79349 5.54951 9.8343C5.27414 9.90817 5.11036 10.1913 5.18423 10.4672C5.24623 10.6981 5.45493 10.85 5.68283 10.85C5.72727 10.85 5.7722 10.8443 5.81718 10.8325C5.85181 10.8227 9.34237 9.90454 12.2822 10.5943C12.5586 10.6589 12.8381 10.4868 12.9032 10.2088C12.9683 9.93142 12.7957 9.65345 12.5177 9.58836Z" fill="#27A4FF"/>
<path d="M12.5177 12.6883C9.32736 11.9402 5.7019 12.8935 5.54951 12.9343C5.27414 13.0081 5.11036 13.2913 5.18423 13.5672C5.24623 13.7981 5.45493 13.95 5.68283 13.95C5.72727 13.95 5.7722 13.9443 5.81718 13.9324C5.85181 13.9226 9.34237 13.0045 12.2822 13.6943C12.5586 13.7589 12.8381 13.5868 12.9032 13.3088C12.9683 13.0314 12.7957 12.7534 12.5177 12.6883Z" fill="#27A4FF"/>
<path d="M17.6225 20.9011C17.714 21.0799 17.8958 21.1832 18.0839 21.1832C18.1624 21.1832 18.243 21.1651 18.318 21.1269C18.3484 21.1114 21.3896 19.5666 22.8894 19.0928C23.1612 19.0065 23.312 18.7161 23.2257 18.4444C23.14 18.1727 22.8517 18.0212 22.5774 18.107C20.9974 18.6067 17.977 20.1411 17.8489 20.2062C17.5946 20.3354 17.4934 20.6465 17.6225 20.9011Z" fill="#27A4FF"/>
<path d="M12.5177 15.7884C9.32736 15.0403 5.7019 15.993 5.54951 16.0343C5.27414 16.1082 5.11036 16.3914 5.18423 16.6672C5.24623 16.8982 5.45493 17.0506 5.68283 17.0506C5.72727 17.0506 5.7722 17.0444 5.81718 17.0325C5.85181 17.0227 9.34237 16.1046 12.2822 16.7943C12.5586 16.8589 12.8381 16.6869 12.9032 16.4089C12.9683 16.1315 12.7957 15.8535 12.5177 15.7884Z" fill="#27A4FF"/>
<path d="M12.5177 21.9883C9.32736 21.2396 5.7019 22.1934 5.54951 22.2342C5.27414 22.3081 5.11036 22.5912 5.18423 22.8671C5.24623 23.098 5.45493 23.2505 5.68283 23.2505C5.72727 23.2505 5.7722 23.2443 5.81718 23.2324C5.85181 23.2226 9.34237 22.3044 12.2822 22.9942C12.5586 23.0582 12.8381 22.8867 12.9032 22.6087C12.9683 22.3313 12.7957 22.0534 12.5177 21.9883Z" fill="#27A4FF"/>
<path d="M12.5177 18.8883C9.32736 18.1396 5.7019 19.0928 5.54951 19.1342C5.27414 19.2081 5.11036 19.4912 5.18423 19.7671C5.24623 19.998 5.45493 20.1505 5.68283 20.1505C5.72727 20.1505 5.7722 20.1443 5.81718 20.1324C5.85181 20.1225 9.34237 19.2044 12.2822 19.8942C12.5586 19.9588 12.8381 19.7867 12.9032 19.5087C12.9683 19.2313 12.7957 18.9533 12.5177 18.8883Z" fill="#27A4FF"/>
</g>
<defs>
<clipPath id="clip0">
<rect width="31" height="31" fill="white"/>
</clipPath>
</defs>
</svg>
