<svg width="663" height="842" viewBox="0 0 663 842" fill="none" xmlns="http://www.w3.org/2000/svg">
<path fill-rule="evenodd" clip-rule="evenodd" d="M47.5912 195.664C89.0037 158.757 136.11 130.591 190.105 117.924C254.182 102.892 332.335 74.7472 382.675 117.054C433.757 159.985 401.581 244.45 417.709 309.208C431.22 363.459 469.338 408.579 469.207 464.5C469.043 534.321 476.683 625.957 416.88 662.086C355.32 699.277 282.147 628.061 210.641 620.711C154.44 614.934 96.3471 648.066 45.3066 623.892C-8.80037 598.266 -50.6069 546.933 -66.8126 489.303C-82.4406 433.727 -60.4181 376.33 -39.4456 322.5C-20.3679 273.533 8.3472 230.638 47.5912 195.664Z" fill="#FFE600"/>
</svg>
